<?xml version="1.0" encoding="UTF-8" standalone="no"?>
<svg
   version="1.1"
   id="Layer_1"
   x="0px"
   y="0px"
   viewBox="19 122.5 2140.0576 2086.9734"
   enable-background="new 19 122.5 1882 1674.9"
   xml:space="preserve"
   sodipodi:docname="logo.svg"
   width="2140.0576"
   height="2086.9734"
   inkscape:version="1.2.1 (9c6d41e410, 2022-07-14)"
   xmlns:inkscape="http://www.inkscape.org/namespaces/inkscape"
   xmlns:sodipodi="http://sodipodi.sourceforge.net/DTD/sodipodi-0.dtd"
   xmlns="http://www.w3.org/2000/svg"
   xmlns:svg="http://www.w3.org/2000/svg"><defs
   id="defs1141" /><sodipodi:namedview
   id="namedview1139"
   pagecolor="#ffffff"
   bordercolor="#000000"
   borderopacity="0.25"
   inkscape:showpageshadow="2"
   inkscape:pageopacity="0.0"
   inkscape:pagecheckerboard="0"
   inkscape:deskcolor="#d1d1d1"
   showgrid="false"
   inkscape:zoom="0.3069137"
   inkscape:cx="803.15737"
   inkscape:cy="1107.8033"
   inkscape:window-width="1920"
   inkscape:window-height="1011"
   inkscape:window-x="0"
   inkscape:window-y="0"
   inkscape:window-maximized="1"
   inkscape:current-layer="Layer_1" />
<ellipse
   style="fill:#ffffff;stroke:none;stroke-width:2.57929"
   id="path1312"
   cx="1089.0288"
   cy="1165.9867"
   rx="1070.0288"
   ry="1043.4867" /><g
   id="g1136"
   transform="translate(252.60657,154.07391)">
	<path
   stroke="#000000"
   stroke-width="0.09375"
   d="m 463.4,171.4 c 10.6,-2.5 21.8,6.7 21.2,17.6 0.2,10.8 -11,19.8 -21.5,17.1 -10.3,-1.9 -16.9,-14.1 -12.7,-23.8 2.1,-5.5 7.1,-9.8 13,-10.9 z"
   id="path686" />
	<path
   fill="#010101"
   stroke="#010101"
   stroke-width="0.09375"
   d="m 502.5,207.5 c 6.4,-3.3 14.9,0.7 16.7,7.6 1.9,6.1 -2.1,13.3 -8.3,14.8 -6.4,2 -13.8,-2.4 -15,-9 -1.3,-5.3 1.6,-11.2 6.6,-13.4 z"
   id="path688" />
	<path
   stroke="#000000"
   stroke-width="0.09375"
   d="m 546.4,214.5 c 12,-3.2 25.4,5.4 27.6,17.6 2.8,11.7 -5.4,24.4 -17.1,26.9 -8.1,2 -17.2,-0.9 -22.6,-7.3 -5.9,-6.6 -7.3,-16.8 -3.3,-24.7 2.8,-6.3 8.7,-11 15.4,-12.5 z"
   id="path690" />
	<path
   stroke="#000000"
   stroke-width="0.09375"
   d="m 615.3,250.4 c 8.9,-1.8 18.5,2.3 23.4,9.9 5.7,8.3 4.8,20.2 -1.9,27.6 -5.8,6.9 -15.9,9.6 -24.4,6.7 -9.1,-2.9 -15.7,-12 -15.7,-21.5 -0.2,-10.8 8,-20.9 18.6,-22.7 z"
   id="path692" />
	<path
   stroke="#000000"
   stroke-width="0.09375"
   d="m 556.4,273.5 c 9.6,-2.4 20.1,4.9 21.3,14.7 1.7,9.3 -5.4,18.8 -14.7,20.1 -9.2,1.8 -18.9,-5.1 -20.3,-14.3 -1.9,-9.1 4.6,-18.7 13.7,-20.5 z"
   id="path694" />
	<path
   stroke="#000000"
   stroke-width="0.09375"
   d="m 396.4,292.6 c 9.1,-2.6 18.7,5.1 18.9,14.4 0.8,8.1 -6,16.1 -14.3,16.3 -8,0.5 -15.3,-6.4 -15.8,-14.4 -0.7,-7.2 4.1,-14.6 11.2,-16.3 z"
   id="path696" />
	<path
   stroke="#000000"
   stroke-width="0.09375"
   d="m 687.4,293.4 c 15.9,-3.8 33.4,7.1 37,23 4.5,15.6 -5.5,33.4 -21.1,37.9 -15,5.1 -32.8,-3.3 -38.5,-18 -5.7,-13.1 -0.9,-29.5 10.8,-37.7 3.5,-2.5 7.5,-4.3 11.8,-5.2 z"
   id="path698" />
	<path
   stroke="#000000"
   stroke-width="0.09375"
   d="m 627.3,306.1 c 10.5,-2.8 21.9,6 21.7,16.9 0.6,10.8 -10.3,20 -20.9,17.8 -9.5,-1.5 -16.4,-11.5 -14.3,-20.9 1.3,-6.6 6.9,-12.3 13.5,-13.8 z"
   id="path700" />
	<path
   stroke="#000000"
   stroke-width="0.09375"
   d="m 767.4,332.6 c 9.1,-1.3 18.7,0.7 26.5,5.5 12.2,7.4 19.9,21.7 19,36 -0.4,17.4 -13.6,33.3 -30.5,37.1 -11.1,2.8 -23.2,0.4 -32.6,-6.1 -8.7,-6.1 -14.8,-15.7 -16.5,-26.2 -2,-11 1.1,-22.8 8.1,-31.5 6.3,-8 15.8,-13.5 26,-14.8 z"
   id="path702" />
	<path
   stroke="#000000"
   stroke-width="0.09375"
   d="m 698.4,367.5 c 11,-2.7 22.9,5.6 24.3,16.8 1.8,10.3 -5.5,20.9 -15.8,22.9 -10.3,2.5 -21.7,-4.6 -24,-15 -2.9,-10.7 4.6,-22.7 15.5,-24.7 z"
   id="path704" />
	<path
   fill="#010101"
   stroke="#010101"
   stroke-width="0.09375"
   d="m 643.4,371.5 c 6.9,-2.1 14.8,3.3 15.2,10.5 0.9,7.3 -6.1,14.1 -13.4,13 -6.3,-0.6 -11.3,-6.7 -10.6,-13 0.4,-4.9 4.1,-9.3 8.8,-10.5 z"
   id="path706" />
	<path
   stroke="#000000"
   stroke-width="0.09375"
   d="m 856.4,381.7 c 13.9,-2 28.5,1.7 39.9,10 11.2,8.1 19.2,20.5 21.7,34.1 2.9,14.5 -0.5,30.1 -9.1,42.2 -7.2,10.2 -17.9,17.8 -29.8,21.2 -13.8,4 -29,2.3 -41.6,-4.6 -12.8,-7 -22.7,-19.3 -26.6,-33.3 -4.5,-15.6 -1.6,-33.1 7.8,-46.4 8.7,-12.6 22.7,-21.2 37.7,-23.2 z"
   id="path708" />
	<path
   fill="#010101"
   stroke="#010101"
   stroke-width="0.09375"
   d="m 547.3,386.1 c 8.2,-2.5 17.3,3.6 18.8,11.9 1.9,7.9 -3.4,16.8 -11.5,18.3 -7.9,1.9 -16.3,-4 -17.9,-11.9 -2,-7.5 2.8,-16.3 10.6,-18.3 z"
   id="path710" />
	<path
   fill="#010101"
   stroke="#010101"
   stroke-width="0.09375"
   d="m 723.3,419.2 c 7,-3 15.8,2.3 16.3,9.9 1,7.1 -5.5,13.9 -12.6,13.3 -6.7,-0.2 -12.2,-6.7 -11.3,-13.4 0.5,-4.4 3.5,-8.3 7.6,-9.8 z"
   id="path712" />
	<path
   stroke="#000000"
   stroke-width="0.09375"
   d="m 769.4,426.5 c 14.4,-4.1 30.7,5.1 34.8,19.5 4.9,14.4 -3.9,31.4 -18.4,35.9 -13.4,4.9 -29.7,-2.1 -35.5,-15.1 -5.8,-11.8 -2.1,-27.1 8.3,-35 3.2,-2.6 6.9,-4.4 10.8,-5.3 z"
   id="path714" />
	<path
   stroke="#000000"
   stroke-width="0.09375"
   d="m 957.4,454.5 c 13,-4.5 28.3,4.3 31.2,17.7 3.2,12 -4.4,25.5 -16.2,29.1 -7.8,2.6 -16.9,0.9 -23.3,-4.4 -7.3,-5.9 -10.6,-16.1 -8.1,-25.2 2,-8 8.5,-14.8 16.4,-17.2 z"
   id="path716" />
	<path
   stroke="#000000"
   stroke-width="0.09375"
   d="m 576.4,472.5 c 8.9,-3 19,4.2 19.5,13.5 1.1,7.9 -5,16.1 -13,16.8 -7.3,1.1 -14.6,-4.2 -16.4,-11.3 -2.5,-7.5 2.2,-16.6 9.9,-19 z"
   id="path718" />
	<path
   stroke="#000000"
   stroke-width="0.09375"
   d="m 640.4,496.4 c 8,-2.7 17.1,2.9 19,11 2.2,7.6 -2.3,16.6 -10,18.8 -7.6,2.6 -16.4,-2.3 -18.7,-9.8 -3.1,-7.9 1.5,-17.7 9.7,-20 z"
   id="path720" />
	<path
   fill="#010101"
   stroke="#010101"
   stroke-width="0.09375"
   d="m 836.4,497.4 c 6.8,-3.3 15,3.1 14.3,10.4 -0.1,7.2 -8.9,12.4 -15.1,8.5 -7.3,-3.8 -6.9,-15.8 0.8,-18.9 z"
   id="path722" />
	<path
   stroke="#000000"
   stroke-width="0.09375"
   d="m 712.3,499.1 c 9.1,-2.7 19.4,2.8 22.8,11.6 2.8,6.9 1.6,15.4 -3.5,20.9 -5,5.9 -13.9,7.9 -21,4.9 -7.7,-3.1 -12.7,-11.3 -12.2,-19.5 0.2,-8.1 6,-15.8 13.9,-17.9 z"
   id="path724" />
	<path
   stroke="#000000"
   stroke-width="0.09375"
   d="m 778.4,500.5 c 17,-4.5 36.2,4.6 43.6,20.5 6,12.1 5,27.3 -2.7,38.4 -9.9,15.4 -31.6,21.5 -48.1,13.4 -15,-6.6 -24.4,-23.6 -22,-39.8 1.8,-15.5 14,-29.1 29.2,-32.5 z"
   id="path726" />
	<path
   stroke="#000000"
   stroke-width="0.09375"
   d="m 894.3,501.3 c 13.7,-2.4 28.3,0.7 39.9,8.5 12.4,8.2 21.1,21.7 23.6,36.3 2.7,14.8 -1.2,30.5 -10.2,42.5 -7.9,10.7 -19.9,18.2 -33,20.8 -14.5,3.1 -30.2,-0.2 -42.4,-8.7 -11,-7.5 -18.9,-19.1 -22.1,-31.9 -3.3,-12.9 -1.6,-27.1 4.7,-38.9 7.8,-15 22.9,-25.9 39.5,-28.6 z"
   id="path728" />
	<path
   fill="#010101"
   stroke="#010101"
   stroke-width="0.09375"
   d="m 674.4,516.3 c 5.6,-2.8 12.9,1.1 14.1,7.1 1.7,5.7 -2.5,12.4 -8.6,13 -5.2,0.7 -10.4,-3.2 -11.3,-8.4 -1,-4.6 1.4,-9.7 5.8,-11.7 z"
   id="path730" />
	<path
   stroke="#000000"
   stroke-width="0.09375"
   d="m 990.4,517.6 c 11.9,-3.7 25.7,3.4 29.7,15.1 2.8,7.4 1.7,16 -2.9,22.5 -4.7,6.8 -13,10.9 -21.3,10.5 -8.3,-0.3 -16.3,-5.1 -20.3,-12.4 -3.5,-6.1 -4.1,-13.8 -1.7,-20.4 2.7,-7.3 9,-13.2 16.5,-15.3 z"
   id="path732" />
	<path
   stroke="#000000"
   stroke-width="0.09375"
   d="m 600.4,535.6 c 8,-3 17.4,2.4 19.4,10.5 2.7,8.4 -3.2,18.5 -12.1,19.6 -7.8,1.4 -15.6,-4.5 -17.1,-12.2 -1.6,-7.3 2.6,-15.6 9.8,-17.9 z"
   id="path734" />
	<path
   fill="#010101"
   stroke="#010101"
   stroke-width="0.09375"
   d="m 716.5,550.6 c 7.7,-2.1 15,6.6 12,13.9 -2,7 -12,9.3 -16.8,3.8 -5.7,-5.3 -3,-16.2 4.8,-17.7 z"
   id="path736" />
	<path
   fill="#010101"
   stroke="#010101"
   stroke-width="0.09375"
   d="m 677.4,552.5 c 8.1,-2.4 17.1,3.5 18.7,11.6 2.3,8.5 -4.1,18.3 -13.1,18.9 -7.9,1 -15.5,-5.5 -16.5,-13.3 -1.3,-7.4 3.5,-15.4 10.9,-17.2 z"
   id="path738" />
	<path
   stroke="#000000"
   stroke-width="0.09375"
   d="m 996.4,575.7 c 22.1,-4.1 46,3.1 62.1,18.8 14,13.2 22.1,32.3 22.1,51.5 0.2,19.1 -7.8,38 -21.4,51.3 -10.9,10.9 -25.5,18 -40.8,20 -20.4,2.8 -41.8,-3.8 -57.1,-17.5 -12.4,-11 -20.8,-26.4 -23.2,-42.8 -2.8,-17.5 1.4,-35.9 11.3,-50.6 10.6,-16.1 28,-27.5 47,-30.7 z"
   id="path740" />
	<path
   stroke="#000000"
   stroke-width="0.09375"
   d="m 726.4,578.4 c 9.4,-3.1 20,2.8 23.3,11.9 3.4,8.4 0.3,19.1 -7.6,23.9 -6.4,4.2 -15.3,3.7 -21.3,-0.9 -7,-5.2 -9.8,-15.1 -6.7,-23.2 2,-5.6 6.7,-10.1 12.3,-11.7 z"
   id="path742" />
	<path
   fill="#010101"
   stroke="#010101"
   stroke-width="0.09375"
   d="m 769.3,589.2 c 7.9,-1.4 14.3,8 10.7,15 -2.6,6.6 -12.3,8 -16.7,2.5 -5.5,-5.7 -2,-16.7 6,-17.5 z"
   id="path744" />
	<path
   fill="#010101"
   stroke="#010101"
   stroke-width="0.09375"
   d="m 684.4,594.5 c 7,-2.6 14.7,4.1 13.5,11.4 -0.4,7.5 -10.1,11.9 -16,7.2 -6.7,-4.5 -5.2,-16.1 2.5,-18.6 z"
   id="path746" />
	<path
   stroke="#000000"
   stroke-width="0.09375"
   d="m 812.4,594.6 c 17.2,-4 36.1,5.7 43.1,21.8 4.8,10.5 4.5,23.1 -0.8,33.3 -4.8,9.3 -13.5,16.6 -23.6,19.5 -10.6,3.1 -22.4,1.4 -31.7,-4.7 -13.3,-8.3 -20.3,-25.4 -16.7,-40.7 3.1,-14.3 15.2,-26.4 29.7,-29.2 z"
   id="path748" />
	<path
   fill="#010101"
   stroke="#010101"
   stroke-width="0.09375"
   d="m 749.5,636.7 c 6.3,-2.5 13.7,2.7 13.8,9.4 0.5,5.4 -3.8,10.7 -9.3,11 -6.1,0.7 -11.6,-5 -11.1,-11 0.1,-4.1 2.7,-8.1 6.6,-9.4 z"
   id="path750" />
	<path
   stroke="#000000"
   stroke-width="0.09375"
   d="m 568.4,642.6 c 9.4,-2.2 19.4,5.7 19.4,15.3 0.6,8.7 -7.1,16.8 -15.8,16.8 -9,0.5 -17.2,-7.8 -16.6,-16.8 0.1,-7.2 5.8,-14 13,-15.3 z"
   id="path752" />
	<path
   stroke="#000000"
   stroke-width="0.09375"
   d="m 902.4,656.5 c 6.5,-1.8 13.9,-0.3 19.2,4 5,3.9 8.1,10.2 8.2,16.6 0.3,8.4 -5,16.7 -12.7,20.1 -4.7,2.2 -10.2,2.4 -15.2,1.1 -8.8,-2.5 -15.4,-11 -15.5,-20.2 -0.5,-9.9 6.6,-19.3 16,-21.6 z"
   id="path754" />
	<path
   stroke="#000000"
   stroke-width="0.09375"
   d="m 855.4,677.6 c 7.7,-2.4 16.3,3.1 18,10.8 2.3,7.9 -3.3,17 -11.5,18.2 -8.2,1.6 -16.4,-5.4 -16.8,-13.7 -0.7,-6.6 3.8,-13.5 10.3,-15.3 z"
   id="path756" />
	<path
   fill="#010101"
   stroke="#010101"
   stroke-width="0.09375"
   d="m 804.3,679.2 c 5.7,-2 12.8,1.2 14.5,7.1 2,5.8 -2.2,12.3 -7.9,13.8 -5.8,1.8 -12.8,-1.6 -14.3,-7.6 -1.6,-5.5 2.2,-11.7 7.7,-13.3 z"
   id="path758" />
	<path
   stroke="#000000"
   stroke-width="0.09375"
   d="m 656.4,694.4 c 9.4,-3.3 20.2,2.4 23.6,11.6 3,7.2 1.3,16.2 -4.4,21.6 -5.5,5.6 -14.6,7 -21.5,3.3 -7.2,-3.5 -11.6,-11.8 -10.8,-19.8 0.5,-7.5 5.8,-14.5 13.1,-16.7 z"
   id="path760" />
	<path
   stroke="#000000"
   stroke-width="0.09375"
   d="m 1074.4,707.8 c 17.5,-2.8 36.1,3.6 48.2,16.6 13.6,14 18.6,35.5 12.7,54 -4.8,15.9 -17.2,29.3 -32.8,35.2 -15.7,6.2 -34.3,4.5 -48.6,-4.4 -13.6,-8.2 -23.2,-22.5 -25.6,-38.2 -2.9,-17 3,-35.2 15.2,-47.4 8.3,-8.5 19.3,-14.1 30.9,-15.8 z"
   id="path762" />
	<path
   stroke="#000000"
   stroke-width="0.09375"
   d="m 915.4,710.7 c 17.3,-3 35.8,7.6 41.8,24.1 4.7,12 2.9,26.3 -4.8,36.6 -8.8,12.3 -25.2,18.4 -39.9,14.8 -10.5,-2.4 -19.8,-9.4 -24.9,-18.8 -5.9,-10.6 -6.4,-24 -1.2,-34.9 5.3,-11.5 16.5,-20 29,-21.8 z"
   id="path764" />
	<path
   stroke="#000000"
   stroke-width="0.09375"
   d="m 742.4,717.5 c 9.4,-2.6 19.6,3.6 22.6,12.7 3,8.3 -0.1,18.4 -7.6,23.2 -6.3,4.2 -15.1,4 -21.2,-0.5 -6.9,-4.8 -10,-14.2 -7.5,-22.2 1.8,-6.5 7.2,-11.8 13.7,-13.2 z"
   id="path766" />
	<path
   fill="#010101"
   stroke="#010101"
   stroke-width="0.09375"
   d="m 850.4,725.6 c 7.7,-2.5 16.5,2.9 18.2,10.7 2.2,7.7 -3,16.8 -11,18.1 -7.5,1.7 -15.3,-3.7 -16.9,-11.1 -2,-7.2 2.4,-15.6 9.7,-17.7 z"
   id="path768" />
	<path
   fill="#010101"
   stroke="#010101"
   stroke-width="0.09375"
   d="m 788.4,729.6 c 7.7,-2.6 16.6,5 14.1,13 -2,8.8 -15,11.5 -20.4,4.2 -5,-5.9 -1,-15.7 6.3,-17.2 z"
   id="path770" />
	<path
   stroke="#000000"
   stroke-width="0.09375"
   d="m 989.3,729.4 c 7.2,-1.7 15.2,0.6 20.3,6 5.2,5.2 7.3,13.1 5.6,20.2 -1.6,6.7 -6.5,12.4 -12.8,15 -6.7,2.8 -14.8,1.9 -20.7,-2.3 -7.3,-4.9 -10.8,-14.6 -8.6,-23.1 1.9,-7.8 8.4,-14.2 16.2,-15.8 z"
   id="path772" />
	<path
   fill="#010101"
   stroke="#010101"
   stroke-width="0.09375"
   d="m 674.5,748.5 c 5.2,-3.1 12.5,1.5 12,7.5 0,5.9 -7.2,9.9 -12.2,6.7 -5.5,-2.8 -5.4,-11.6 0.2,-14.2 z"
   id="path774" />
	<path
   stroke="#000000"
   stroke-width="0.09375"
   d="m 816.3,753.2 c 9.8,-1.9 20.5,1.9 26.9,9.6 8.9,10.2 8.7,26.9 -0.5,36.8 -8.6,10.2 -24.7,12.6 -35.9,5.4 -9.7,-5.8 -15.2,-17.6 -13.2,-28.7 1.8,-11.4 11.3,-21.1 22.7,-23.1 z"
   id="path776" />
	<path
   stroke="#000000"
   stroke-width="0.09375"
   d="m 582.3,764.3 c 7.1,-1.6 14.7,4.3 14.6,11.7 0.5,7 -6,13.2 -12.9,12.6 -7.1,-0.2 -12.9,-7.6 -11.3,-14.6 0.8,-4.8 4.8,-8.9 9.6,-9.7 z"
   id="path778" />
	<path
   stroke="#000000"
   stroke-width="0.09375"
   d="m 724.3,775.3 c 12.1,-2.5 25,6.6 26.8,18.8 2.4,11.9 -6.3,24.5 -18.2,26.6 -9.7,2.1 -20.2,-3 -24.8,-11.7 -3.3,-6.1 -3.7,-13.6 -1,-20 2.9,-7.1 9.6,-12.5 17.2,-13.7 z"
   id="path780" />
	<path
   stroke="#000000"
   stroke-width="0.09375"
   d="m 984.4,785.6 c 17.6,-3 36.2,8.2 41.9,25.1 6.4,16.8 -1,37.2 -16.6,46.1 -10.1,6.1 -23.1,7.1 -34,2.6 -7.4,-3 -13.8,-8.2 -18.1,-15 -7,-10.7 -8,-24.9 -2.7,-36.5 5.2,-11.8 16.7,-20.5 29.5,-22.3 z"
   id="path782" />
	<path
   fill="#010101"
   stroke="#010101"
   stroke-width="0.09375"
   d="m 768.4,800.4 c 6.7,-2 14.5,3.4 14.2,10.6 0.1,8.1 -9.6,13.4 -16.6,10 -5.3,-2.3 -8,-9.1 -5.3,-14.3 1.4,-3.2 4.4,-5.5 7.7,-6.3 z"
   id="path784" />
	<path
   stroke="#000000"
   stroke-width="0.09375"
   d="m 508.4,802.7 c 10.5,-2.2 21.5,6.6 21.5,17.3 0.7,9.6 -7.4,18.6 -16.9,19.1 -9.5,1 -18.8,-6.7 -19.7,-16.2 -1.3,-9.4 5.8,-18.8 15.1,-20.2 z"
   id="path786" />
	<path
   stroke="#000000"
   stroke-width="0.09375"
   d="m 1162.4,803.6 c 17.7,-2.9 36,10 39.3,27.6 4,17 -6.9,35.8 -23.6,40.8 -16,5.6 -35.1,-2.5 -42.4,-17.7 -6.9,-13.2 -4,-30.6 6.8,-40.9 5.3,-5.3 12.4,-8.8 19.9,-9.8 z"
   id="path788" />
	<path
   stroke="#000000"
   stroke-width="0.09375"
   d="m 888.4,807.6 c 9.9,-2.2 20.6,-0.5 29.3,4.7 11.9,6.8 19.9,19.9 20.5,33.6 1,16.1 -8.6,32.2 -23.2,39 -10.2,5 -22.6,5.5 -33.1,1.3 -10.9,-4.3 -19.8,-13.4 -23.6,-24.4 -3.6,-9.8 -3.2,-21 1.1,-30.6 5.1,-11.9 16.2,-21 29,-23.6 z"
   id="path790" />
	<path
   stroke="#000000"
   stroke-width="0.09375"
   d="m 799.4,829.7 c 9.6,-3.2 20.5,3 23.5,12.5 2.5,7.1 0.7,15.7 -4.8,20.9 -5,5 -12.9,6.7 -19.5,4.1 -8.4,-3.1 -13.9,-12.4 -12.6,-21.2 0.8,-7.4 6.2,-14.2 13.4,-16.3 z"
   id="path792" />
	<path
   stroke="#000000"
   stroke-width="0.09375"
   d="m 1066.4,836.5 c 17.7,-3.4 36.9,2.8 49.3,15.9 12.7,12.8 18.2,32.3 14.3,49.9 -3.4,16.3 -14.8,30.8 -29.9,37.9 -15.2,7.5 -33.8,7.3 -48.8,-0.4 -14.8,-7.4 -25.9,-21.8 -29.1,-38.1 -3.4,-15.8 0.8,-32.9 11,-45.4 8.2,-10.4 20.2,-17.6 33.2,-19.8 z"
   id="path794" />
	<path
   stroke="#000000"
   stroke-width="0.09375"
   d="m 583.4,847.5 c 6.8,-2.6 15,2.3 16,9.5 1.6,7.4 -5,14.9 -12.4,14.4 -6.8,-0.1 -12.6,-6.5 -11.9,-13.3 0.4,-4.7 3.7,-9.1 8.3,-10.6 z"
   id="path796" />
	<path
   stroke="#000000"
   stroke-width="0.09375"
   d="m 683.4,865.7 c 9.7,-2.3 20.4,3.9 23.3,13.5 2.4,7.1 0.4,15.4 -5,20.6 -6,6.2 -16.3,7.7 -23.8,3.4 -6.8,-3.6 -11.1,-11.4 -10.5,-19.1 0.4,-8.8 7.4,-16.8 16,-18.4 z"
   id="path798" />
	<path
   stroke="#000000"
   stroke-width="0.09375"
   d="m 982.4,881.6 c 7.1,-1.4 14.7,1.1 19.6,6.3 5.8,6 7.6,15.5 4.3,23.2 -3.6,9.1 -13.8,14.8 -23.3,13.1 -10.3,-1.4 -18.5,-11 -18.4,-21.3 -0.2,-10.1 7.8,-19.6 17.8,-21.3 z"
   id="path800" />
	<path
   fill="#010101"
   stroke="#010101"
   stroke-width="0.09375"
   d="m 837.3,882.3 c 5.4,-2.3 11.9,2.9 10.9,8.7 -0.5,6.2 -8.9,9.4 -13.4,5.2 -4.7,-3.8 -3.2,-12.2 2.5,-13.9 z"
   id="path802" />
	<path
   stroke="#000000"
   stroke-width="0.09375"
   d="m 1188.4,889.6 c 18.3,-2.1 37.3,5.8 48.7,20.3 10.9,13.3 14.9,32 10.3,48.6 -4,15.1 -14.7,28.3 -28.8,35.1 -14.8,7.4 -32.9,7.6 -47.8,0.5 -15.8,-7.2 -27.6,-22.4 -30.7,-39.4 -3.5,-17.4 2.2,-36.3 14.7,-48.9 8.9,-9.1 21,-14.9 33.6,-16.2 z"
   id="path804" />
	<path
   fill="#020202"
   stroke="#020202"
   stroke-width="0.09375"
   d="m 1636.5,896.4 c 5.8,-3.4 13.9,1.9 13.1,8.6 -0.1,6.5 -8.3,10.8 -13.7,7.1 -6,-3.2 -5.6,-12.9 0.6,-15.7 z"
   id="path806" />
	<path
   stroke="#000000"
   stroke-width="0.09375"
   d="m 1674.3,896.6 c 11.1,-2.4 23.2,4.6 26.6,15.4 2.6,7.4 1.1,16 -3.8,22.1 -4.3,5.5 -11.2,8.8 -18.1,8.8 -8.7,0.2 -17.3,-5 -21.1,-12.8 -3.7,-7.2 -3.3,-16.3 1.1,-23.1 3.4,-5.4 9.1,-9.2 15.3,-10.4 z"
   id="path808" />
	<path
   stroke="#000000"
   stroke-width="0.09375"
   d="m 765.4,899.5 c 7.8,-3.3 17.5,3.1 17.5,11.6 0.6,7.8 -6.9,14.7 -14.6,13.5 -6.6,-0.7 -11.9,-7 -11.3,-13.6 0.1,-5.1 3.7,-9.8 8.4,-11.5 z"
   id="path810" />
	<path
   stroke="#000000"
   stroke-width="0.09375"
   d="m 916.4,905.8 c 16.1,-3.7 33.6,7.3 37.4,23.4 4.3,15.5 -5.1,33.2 -20.4,38.1 -15.3,5.9 -34,-2.5 -40.1,-17.7 -6,-13.4 -1.2,-30.3 10.9,-38.5 3.6,-2.6 7.8,-4.4 12.2,-5.3 z"
   id="path812" />
	<path
   fill="#020202"
   stroke="#020202"
   stroke-width="0.09375"
   d="m 1733.4,906.4 c 4.9,-2.2 10.9,2.2 10.4,7.5 -0.1,5.9 -7.8,9.4 -12.3,5.5 -4.6,-3.2 -3.4,-11.2 1.9,-13 z"
   id="path814" />
	<path
   fill="#010101"
   stroke="#010101"
   stroke-width="0.09375"
   d="m 1577.3,907.3 c 7.3,-2.4 15.7,3.2 16.3,10.8 1.1,7.6 -6,14.9 -13.6,14.1 -7,-0.4 -12.7,-7.2 -11.7,-14.1 0.5,-5 4.2,-9.4 9,-10.8 z"
   id="path816" />
	<path
   fill="#010101"
   stroke="#010101"
   stroke-width="0.09375"
   d="m 1766.4,907.3 c 3.7,-1.7 8.3,1.6 8,5.7 0.1,4.6 -6.2,7.4 -9.6,4.3 -3.5,-2.6 -2.5,-8.7 1.6,-10 z"
   id="path818" />
	<path
   fill="#010101"
   stroke="#010101"
   stroke-width="0.09375"
   d="m 868.5,908.7 c 5.6,-2.1 11.9,3.4 10.5,9.3 -0.8,6.1 -9.2,8.9 -13.5,4.5 -4.5,-4 -2.8,-12.2 3,-13.8 z"
   id="path820" />
	<path
   fill="#010101"
   stroke="#010101"
   stroke-width="0.09375"
   d="m 819.4,911.5 c 5.6,-2.1 12.4,1.8 13.5,7.7 1.4,5.8 -3.1,12 -9,12.5 -5.4,0.8 -10.9,-3.5 -11.5,-8.9 -0.7,-4.9 2.4,-9.8 7,-11.3 z"
   id="path822" />
	<path
   fill="#020202"
   stroke="#020202"
   stroke-width="0.09375"
   d="m 1710.4,914.2 c 3,-1.9 7.5,0.3 7.8,3.9 0.8,4 -4.1,7.5 -7.7,5.4 -3.5,-1.7 -3.8,-7.5 -0.1,-9.3 z"
   id="path824" />
	<path
   stroke="#000000"
   stroke-width="0.09375"
   d="m 1618.4,917.7 c 8.2,-2.3 17.5,0.4 23.2,6.7 5.7,5.9 7.8,14.9 5.6,22.7 -2.4,8.4 -9.7,15.2 -18.4,16.8 -8.5,1.7 -17.8,-1.8 -23,-8.7 -4.9,-6.2 -6.4,-14.8 -3.8,-22.3 2.5,-7.4 8.8,-13.3 16.4,-15.2 z"
   id="path826" />
	<path
   fill="#010101"
   stroke="#010101"
   stroke-width="0.09375"
   d="m 1808.4,917.4 c 5.7,-2.9 13.1,2.1 12.4,8.5 -0.1,6.8 -9,10.8 -14.1,6.4 -5.1,-3.7 -4.1,-12.5 1.7,-14.9 z"
   id="path828" />
	<path
   fill="#010101"
   stroke="#010101"
   stroke-width="0.09375"
   d="m 1783.4,918.4 c 6.8,-3 15.1,3.2 14.2,10.6 -0.2,7.7 -10.1,12.5 -16.3,7.9 -7,-4.4 -5.6,-16 2.1,-18.5 z"
   id="path830" />
	<path
   fill="#010101"
   stroke="#010101"
   stroke-width="0.09375"
   d="m 1752.4,921.5 c 7.1,-2.1 14.8,4.1 14.4,11.5 0.1,7.3 -7.7,13.1 -14.7,11 -6.3,-1.5 -10.2,-8.7 -8,-14.8 1.2,-3.7 4.5,-6.8 8.3,-7.7 z"
   id="path832" />
	<path
   fill="#010101"
   stroke="#010101"
   stroke-width="0.09375"
   d="m 1832.5,924.7 c 7.3,-2.1 15.2,4.8 13.9,12.3 -0.6,7 -8.4,11.9 -14.9,9.4 -6.5,-2 -9.7,-10.3 -6.2,-16.1 1.5,-2.8 4.1,-4.9 7.2,-5.6 z"
   id="path834" />
	<path
   fill="#020202"
   stroke="#020202"
   stroke-width="0.09375"
   d="m 1724.4,928.4 c 6.2,-3.3 14.3,2.6 12.9,9.5 -0.7,6.8 -9.8,10.1 -14.8,5.5 -4.9,-3.8 -3.9,-12.6 1.9,-15 z"
   id="path836" />
	<path
   stroke="#000000"
   stroke-width="0.09375"
   d="m 1544.4,929.6 c 15.5,-2.5 31.8,6.2 38.5,20.4 6.2,12.3 4.5,28 -4.1,38.8 -9.9,13.1 -28.9,18 -43.9,11.2 -14.6,-6.1 -24.1,-22.3 -22,-38.1 1.7,-16.2 15.3,-30.2 31.5,-32.3 z"
   id="path838" />
	<path
   stroke="#000000"
   stroke-width="0.09375"
   d="m 847.4,937.6 c 12.5,-3.7 27.1,2.2 33.4,13.7 5.9,9.9 5,23.3 -2.1,32.5 -7.1,9.6 -20.5,14 -31.9,10.4 -8.2,-2.4 -15.2,-8.6 -18.5,-16.4 -3.3,-7.4 -3.3,-16 0,-23.4 3.4,-8.2 10.6,-14.5 19.1,-16.8 z"
   id="path840" />
	<path
   fill="#010101"
   stroke="#010101"
   stroke-width="0.09375"
   d="m 794.3,938.2 c 7.7,-2.6 16.7,3.6 16.7,11.8 0.7,7.2 -5.8,13.9 -13,13.6 -6.8,0.1 -13,-5.9 -12.9,-12.8 -0.2,-5.6 3.7,-11.1 9.2,-12.6 z"
   id="path842" />
	<path
   stroke="#000000"
   stroke-width="0.09375"
   d="m 999.4,939.6 c 16.9,-4 35.6,3.1 45.8,17.1 10.6,13.9 11.8,34.2 2.9,49.3 -8.8,15.8 -27.7,25 -45.6,22.2 -17.4,-2.4 -32.7,-15.8 -37,-32.8 -4.4,-15.4 0.5,-32.8 11.9,-43.9 6.1,-5.9 13.8,-10.1 22,-11.9 z"
   id="path844" />
	<path
   stroke="#000000"
   stroke-width="0.09375"
   d="m 749.4,940.4 c 6.9,-2.9 15.5,1.7 17.1,9 2.1,7.1 -3.2,15.1 -10.5,16 -7,1.3 -14.4,-4.3 -14.9,-11.5 -0.8,-5.6 2.9,-11.5 8.3,-13.5 z"
   id="path846" />
	<path
   fill="#010101"
   stroke="#010101"
   stroke-width="0.09375"
   d="m 1805.4,940.5 c 7.4,-3.1 16.6,1.5 18.7,9.2 2.4,7.2 -2.2,15.6 -9.5,17.7 -7.1,2.4 -15.5,-2.1 -17.6,-9.2 -2.5,-7 1.5,-15.3 8.4,-17.7 z"
   id="path848" />
	<path
   fill="#020202"
   stroke="#020202"
   stroke-width="0.09375"
   d="m 1707.5,942.6 c 3.4,-1.4 7.5,1.7 7.1,5.4 -0.1,4 -5.3,6.4 -8.4,3.9 -3.4,-2.3 -2.5,-8.1 1.3,-9.3 z"
   id="path850" />
	<path
   fill="#010101"
   stroke="#010101"
   stroke-width="0.09375"
   d="m 1775.4,945.5 c 7.4,-2.8 15.6,4.8 13.5,12.3 -1.4,7.5 -11.7,10.7 -17.1,5.4 -6.1,-4.8 -3.9,-15.7 3.6,-17.7 z"
   id="path852" />
	<path
   fill="#010101"
   stroke="#010101"
   stroke-width="0.09375"
   d="m 1685.4,948.3 c 5.7,-2.5 12.7,2.4 12.3,8.6 0.2,6.8 -8.5,11.4 -14,7.4 -6.1,-3.6 -5,-13.8 1.7,-16 z"
   id="path854" />
	<path
   fill="#010101"
   stroke="#010101"
   stroke-width="0.09375"
   d="m 1655.4,950.4 c 6.1,-3.2 14,2.8 12.7,9.6 -0.7,6.7 -9.7,10.2 -14.7,5.6 -5.1,-3.9 -3.9,-12.8 2,-15.2 z"
   id="path856" />
	<path
   fill="#020202"
   stroke="#020202"
   stroke-width="0.09375"
   d="m 1754.4,951.4 c 4.5,-1.2 9,3.8 7.1,8.1 -1.3,4.2 -7.3,5.4 -10.2,2.1 -3.3,-3.1 -1.4,-9.4 3.1,-10.2 z"
   id="path858" />
	<path
   fill="#010101"
   stroke="#010101"
   stroke-width="0.09375"
   d="m 1729.5,952.5 c 5.8,-3.1 13.4,2 12.9,8.5 0,6.7 -8.3,11.1 -13.8,7.3 -6,-3.3 -5.5,-13.1 0.9,-15.8 z"
   id="path860" />
	<path
   stroke="#000000"
   stroke-width="0.09375"
   d="m 1480.4,954.7 c 7,-1.6 14.8,1 19.3,6.5 4.8,5.5 6,13.8 3,20.5 -3.3,8 -12.3,13 -20.8,11.7 -9.1,-1.1 -16.6,-9.3 -16.9,-18.4 -0.6,-9.4 6.3,-18.4 15.4,-20.3 z"
   id="path862" />
	<path
   fill="#010101"
   stroke="#010101"
   stroke-width="0.09375"
   d="m 1707.3,962.2 c 5.3,-3 12.5,1.8 11.8,7.8 0,6 -7.7,9.8 -12.6,6.4 -5.2,-3.1 -4.7,-11.7 0.8,-14.2 z"
   id="path864" />
	<path
   stroke="#000000"
   stroke-width="0.09375"
   d="m 1110.4,963.5 c 6.6,-1.3 13.7,0.9 18.4,5.7 6.1,6.1 7.6,16.3 3.3,23.8 -4.2,8 -14.1,12.3 -22.9,9.9 -8.9,-2.1 -15.5,-10.8 -15.2,-19.9 0,-9.2 7.2,-17.9 16.4,-19.5 z"
   id="path866" />
	<path
   fill="#010101"
   stroke="#010101"
   stroke-width="0.09375"
   d="m 1639.4,970.5 c 5.8,-1.9 12.3,3.4 11.5,9.5 -0.2,6.8 -9.2,10.8 -14.4,6.4 -5.9,-4 -4,-14.2 2.9,-15.9 z"
   id="path868" />
	<path
   stroke="#000000"
   stroke-width="0.09375"
   d="m 1675.4,970.7 c 10.1,-2.8 21.4,5 22.4,15.4 1.5,10 -6.7,20 -16.7,20.5 -9.2,0.9 -18.3,-6.3 -19.4,-15.5 -1.6,-9.1 4.7,-18.5 13.7,-20.4 z"
   id="path870" />
	<path
   fill="#020202"
   stroke="#020202"
   stroke-width="0.09375"
   d="m 1750.4,970.2 c 3.2,-1.1 6.8,2.3 5.5,5.5 -0.8,3.2 -5.3,4.2 -7.4,1.8 -2.3,-2.2 -1.2,-6.5 1.9,-7.3 z"
   id="path872" />
	<path
   stroke="#000000"
   stroke-width="0.09375"
   d="m 1604.4,972.3 c 7.5,-3.2 17,1.8 18.6,9.9 2,7.4 -3.5,15.7 -11,16.8 -7.2,1.5 -14.9,-3.8 -16.2,-11 -1.4,-6.5 2.4,-13.4 8.6,-15.7 z"
   id="path874" />
	<path
   stroke="#000000"
   stroke-width="0.09375"
   d="m 1768.5,972.5 c 4.9,-2.2 11,2 10.5,7.4 0,5.7 -7.3,9.3 -11.8,5.9 -5,-3 -4.2,-11.3 1.3,-13.3 z"
   id="path876" />
	<path
   fill="#010101"
   stroke="#010101"
   stroke-width="0.09375"
   d="m 1789.4,972.3 c 5.1,-2.9 12,1.9 11,7.6 -0.4,5.5 -7.5,8.7 -11.9,5.4 -4.6,-2.9 -4,-10.6 0.9,-13 z"
   id="path878" />
	<path
   fill="#010101"
   stroke="#010101"
   stroke-width="0.09375"
   d="m 1731.4,978.4 c 3.9,-2.1 9.1,1.2 8.8,5.6 0.2,4.9 -6.3,7.9 -10,4.7 -3.5,-2.5 -2.8,-8.7 1.2,-10.3 z"
   id="path880" />
	<path
   stroke="#000000"
   stroke-width="0.09375"
   d="m 1274.4,980.5 c 10.1,-3.6 22.4,1.7 26.6,11.5 3.7,7.8 2,17.8 -4,24 -5.6,6 -14.9,8.3 -22.6,5.6 -8.7,-2.8 -14.9,-11.5 -14.7,-20.6 -0.1,-9 6.1,-17.7 14.7,-20.5 z"
   id="path882" />
	<path
   fill="#020202"
   stroke="#020202"
   stroke-width="0.09375"
   d="m 1712.4,986.2 c 3.7,-1.7 8.4,1.7 8,5.7 0,4.6 -6.1,7.3 -9.5,4.3 -3.6,-2.5 -2.7,-8.6 1.5,-10 z"
   id="path884" />
	<path
   fill="#010101"
   stroke="#010101"
   stroke-width="0.09375"
   d="m 1750.4,986.5 c 6.8,-3 15.3,2.1 15.8,9.5 1,6.9 -5.3,13.5 -12.2,12.9 -6.7,-0.2 -12.2,-7.1 -10.8,-13.7 0.7,-3.9 3.6,-7.2 7.2,-8.7 z"
   id="path886" />
	<path
   stroke="#000000"
   stroke-width="0.09375"
   d="m 910.4,987.6 c 17.4,-2.8 35.5,9.8 39,27.1 4.3,16.9 -6.2,35.7 -22.7,41.1 -14.2,5.2 -31.3,-0.1 -40.1,-12.4 -7.8,-10.4 -9.1,-25.2 -3,-36.7 5.1,-10.3 15.4,-17.7 26.8,-19.1 z"
   id="path888" />
	<path
   stroke="#000000"
   stroke-width="0.09375"
   d="m 1450.4,988.5 c 9,-2.1 18.7,5.2 19.2,14.5 1,8.9 -6.6,17.4 -15.6,17.5 -8.6,0.5 -16.6,-6.9 -16.7,-15.5 -0.5,-7.8 5.5,-15.2 13.1,-16.5 z"
   id="path890" />
	<path
   stroke="#000000"
   stroke-width="0.09375"
   d="m 1636.3,996.2 c 12.7,-2.7 26.1,6.9 27.7,19.8 2.1,12.2 -6.9,24.8 -19.1,26.8 -9.7,2 -20.3,-3 -25,-11.7 -3.8,-6.8 -4,-15.6 -0.3,-22.5 3.2,-6.4 9.6,-11.1 16.7,-12.4 z"
   id="path892" />
	<path
   stroke="#000000"
   stroke-width="0.09375"
   d="m 1505.4,999.6 c 9.2,-2 18.9,6 18.5,15.4 0.4,8.5 -7.5,16.2 -16,15.8 -8.4,0.1 -15.8,-7.5 -15.5,-15.8 0,-7.4 5.8,-14.2 13,-15.4 z"
   id="path894" />
	<path
   fill="#010101"
   stroke="#010101"
   stroke-width="0.09375"
   d="m 1726.4,1000.5 c 5.4,-2.1 12,1.8 12.7,7.6 1.2,6.1 -4.9,12.2 -11,11 -5,-0.7 -8.9,-5.9 -8,-11 0.5,-3.4 3,-6.5 6.3,-7.6 z"
   id="path896" />
	<path
   stroke="#000000"
   stroke-width="0.09375"
   d="m 1578.4,1002.6 c 6.4,-2.3 14,-0.7 18.8,4.1 5.4,5.1 7,13.6 4,20.4 -2.9,6.6 -9.9,11.2 -17.2,10.8 -8.5,0 -16.3,-6.9 -17.5,-15.3 -1.5,-8.3 3.8,-17.3 11.9,-20 z"
   id="path898" />
	<path
   fill="#010101"
   stroke="#010101"
   stroke-width="0.09375"
   d="m 1702.4,1004.4 c 5.7,-2.6 12.6,3.5 10.9,9.5 -1.1,5.9 -9.2,8.4 -13.5,4.2 -4.5,-3.8 -2.9,-11.9 2.6,-13.7 z"
   id="path900" />
	<path
   stroke="#000000"
   stroke-width="0.09375"
   d="m 1338.3,1007.2 c 5.3,-1.1 10.9,0 15.3,3.1 6.2,4.2 9.5,12.1 8.1,19.4 -0.9,5.4 -4.2,10.4 -8.8,13.3 -6.4,4.2 -15.3,4.1 -21.6,-0.3 -6.8,-4.5 -10.2,-13.4 -8,-21.2 1.8,-7.1 7.8,-12.9 15,-14.3 z"
   id="path902" />
	<path
   stroke="#000000"
   stroke-width="0.09375"
   d="m 1213.4,1010.6 c 5.4,-1.6 11.4,-1 16.3,1.6 6.9,3.5 11.4,11 11.5,18.8 0.1,6.6 -2.9,13.1 -8.1,17.2 -6.3,5.2 -15.7,6.2 -23,2.7 -7.5,-3.5 -12.5,-11.6 -12.3,-19.9 0.1,-9.2 6.7,-18 15.6,-20.4 z"
   id="path904" />
	<path
   fill="#010101"
   stroke="#010101"
   stroke-width="0.09375"
   d="m 1416.5,1010.6 c 8.2,-2.4 16.2,6.9 12.8,14.7 -2.7,7.9 -14.5,9.5 -19.2,2.6 -4.8,-6 -1.1,-15.8 6.4,-17.3 z"
   id="path906" />
	<path
   fill="#010101"
   stroke="#010101"
   stroke-width="0.09375"
   d="m 1157.4,1015.4 c 7.1,-2.2 15.1,3.3 15.7,10.7 1,7.3 -5.6,14.4 -13,13.8 -7.3,-0.1 -13.2,-7.5 -11.7,-14.6 0.7,-4.7 4.4,-8.7 9,-9.9 z"
   id="path908" />
	<path
   fill="#010101"
   stroke="#010101"
   stroke-width="0.09375"
   d="m 1678.5,1015.6 c 6.5,-2.9 14.1,4.1 11.9,10.8 -1.5,6.4 -10.4,8.9 -14.9,4.2 -4.9,-4.2 -3.1,-13 3,-15 z"
   id="path910" />
	<path
   fill="#010101"
   stroke="#010101"
   stroke-width="0.09375"
   d="m 658.4,1016.4 c 7.5,-2.4 15.4,5.5 13,13 -1.6,7.6 -12.3,10.5 -17.6,4.9 -6,-5.3 -3.1,-16.2 4.6,-17.9 z"
   id="path912" />
	<path
   stroke="#000000"
   stroke-width="0.09375"
   d="m 1079.3,1022.3 c 16.8,-3.6 35.2,5.5 42.5,21 7.6,14.8 4.2,34.3 -8.1,45.5 -10.1,9.8 -25.8,13.3 -39.2,8.8 -15.8,-5 -27.2,-21 -26.7,-37.6 0,-18 13.9,-34.6 31.5,-37.7 z"
   id="path914" />
	<path
   fill="#010101"
   stroke="#010101"
   stroke-width="0.09375"
   d="m 1379.4,1024.5 c 6.1,-2.3 13.5,2.2 14.3,8.7 1.4,6.7 -4.9,13.6 -11.7,12.7 -7,-0.2 -12.1,-8.1 -9.6,-14.5 1.1,-3.2 3.8,-5.8 7,-6.9 z"
   id="path916" />
	<path
   stroke="#000000"
   stroke-width="0.09375"
   d="m 1463.4,1025.6 c 14.1,-2.4 28.7,8.3 30.7,22.4 2.8,14.2 -7.9,29 -22.1,31.1 -14.4,2.9 -29.6,-8 -31.5,-22.5 -2.7,-14.4 8.4,-29.3 22.9,-31 z"
   id="path918" />
	<path
   stroke="#000000"
   stroke-width="0.09375"
   d="m 1532.4,1029.6 c 15.5,-4.3 33.1,3.1 41,17 6.8,11.1 6.8,25.9 0.3,37.1 -6.9,12.4 -21.5,20 -35.7,18.4 -13.3,-1.2 -25.5,-10.2 -30.5,-22.6 -5.5,-12.9 -2.7,-28.8 6.9,-39.1 4.8,-5.2 11.1,-9.1 18,-10.8 z"
   id="path920" />
	<path
   stroke="#000000"
   stroke-width="0.09375"
   d="m 576.4,1031.5 c 8.5,-3.2 18.8,2.7 20.5,11.6 2.2,8.5 -4.2,17.9 -12.8,19.1 -8,1.5 -16.6,-4.2 -18.1,-12.2 -2,-7.7 2.9,-16.2 10.4,-18.5 z"
   id="path922" />
	<path
   stroke="#000000"
   stroke-width="0.09375"
   d="m 1284.4,1037.2 c 17.3,-2.4 35.5,4.2 47.3,17.1 11.9,12.6 17.2,31 13.8,48 -3.2,16.8 -14.6,31.7 -30.1,39 -14.8,7.3 -32.9,7.4 -47.7,0.1 -15.4,-7.3 -27,-22.1 -30.3,-38.8 -3.4,-16.4 1.3,-34.3 12.4,-46.9 8.7,-10.1 21.3,-16.8 34.6,-18.5 z"
   id="path924" />
	<path
   stroke="#000000"
   stroke-width="0.09375"
   d="m 1603.4,1042.5 c 9,-3.4 19.9,1.9 23,10.9 3.6,9 -1.5,20.2 -10.7,23.3 -9.1,3.7 -20.5,-1.5 -23.6,-10.9 -3.5,-9.1 2,-20.4 11.3,-23.3 z"
   id="path926" />
	<path
   fill="#010101"
   stroke="#010101"
   stroke-width="0.09375"
   d="m 1412.3,1046.2 c 7,-2.7 15.5,2.5 16.4,9.9 1.2,6.7 -4,13.5 -10.7,14.2 -6.8,1.1 -13.7,-4.5 -14.1,-11.4 -0.5,-5.4 3.2,-11 8.4,-12.7 z"
   id="path928" />
	<path
   fill="#010101"
   stroke="#010101"
   stroke-width="0.09375"
   d="m 792.5,1051.6 c 5.8,-2.1 12.3,4.1 10.3,10 -1.4,5.9 -9.8,8.1 -13.8,3.5 -4.3,-4 -2.2,-12 3.5,-13.5 z"
   id="path930" />
	<path
   fill="#010101"
   stroke="#010101"
   stroke-width="0.09375"
   d="m 752.5,1052.5 c 6.1,-1.7 12.1,5.4 9.3,11.1 -2.1,5.7 -10.8,6.7 -14.1,1.6 -3.5,-4.3 -0.8,-11.7 4.8,-12.7 z"
   id="path932" />
	<path
   stroke="#000000"
   stroke-width="0.09375"
   d="m 1005.4,1052.7 c 10.8,-2.2 22.3,5.3 24.8,15.9 2.4,8.7 -1.5,18.6 -9.1,23.5 -7.5,5.1 -18.1,4.7 -25.2,-1 -7.3,-5.4 -10.3,-15.8 -7.2,-24.3 2.6,-7.3 9.2,-12.9 16.7,-14.1 z"
   id="path934" />
	<path
   stroke="#000000"
   stroke-width="0.09375"
   d="m 1372.4,1058.7 c 10.9,-3 23.1,4.1 26,14.9 3.5,10.8 -3.2,23.4 -14,26.7 -11.3,4 -24.8,-3.2 -27.7,-14.9 -3.5,-11.3 4.2,-24.2 15.7,-26.7 z"
   id="path936" />
	<path
   fill="#010101"
   stroke="#010101"
   stroke-width="0.09375"
   d="m 836.4,1060.3 c 5.7,-2.3 12.2,3.6 10.6,9.5 -1,5.9 -8.9,8.5 -13.3,4.5 -4.9,-3.8 -3.2,-12.4 2.7,-14 z"
   id="path938" />
	<path
   stroke="#000000"
   stroke-width="0.09375"
   d="m 1170.4,1060.7 c 18.2,-3 37.5,6.3 46.6,22.2 9.3,15.4 8.2,36.2 -2.6,50.5 -10.4,14.7 -30,21.9 -47.5,17.7 -17.2,-3.8 -31.4,-18.2 -34.7,-35.5 -3.6,-16.3 2.7,-34.3 15.6,-44.8 6.5,-5.3 14.4,-8.8 22.6,-10.1 z"
   id="path940" />
	<path
   fill="#010101"
   stroke="#010101"
   stroke-width="0.09375"
   d="m 888.5,1061.6 c 5.4,-2.7 12.4,2.3 11.4,8.3 -0.2,6.1 -8.1,9.6 -12.8,5.9 -5.2,-3.2 -4.3,-12 1.4,-14.2 z"
   id="path942" />
	<path
   stroke="#000000"
   stroke-width="0.09375"
   d="m 938.3,1065.3 c 18.2,-2.8 37.4,7.1 45.9,23.4 8.4,15.4 6.6,35.5 -4.5,49 -10.6,13.7 -29.6,20.2 -46.3,15.7 -16.2,-3.9 -29.5,-17.5 -32.9,-33.8 -3.8,-16 2.3,-33.7 14.9,-44.2 6.5,-5.5 14.6,-9 22.9,-10.1 z"
   id="path944" />
	<path
   fill="#010101"
   stroke="#010101"
   stroke-width="0.09375"
   d="m 811.3,1077.3 c 6.8,-1.7 14.1,3.7 14.2,10.7 0.6,7.4 -7.2,13.8 -14.3,11.7 -6.3,-1.3 -10.4,-8.6 -8.3,-14.6 1.2,-3.9 4.5,-7 8.4,-7.8 z"
   id="path946" />
	<path
   stroke="#000000"
   stroke-width="0.09375"
   d="m 864.5,1080.7 c 7.8,-2.5 16.7,4.1 16.5,12.3 0.4,8 -7.9,14.9 -15.7,12.8 -6.9,-1.3 -11.7,-8.8 -9.9,-15.6 0.9,-4.5 4.5,-8.4 9.1,-9.5 z"
   id="path948" />
	<path
   fill="#010101"
   stroke="#010101"
   stroke-width="0.09375"
   d="m 776.3,1082.1 c 5.5,-2.7 12.5,2.6 11.3,8.7 -0.5,6 -8.2,9.2 -12.9,5.6 -5.1,-3.4 -4.1,-12.1 1.6,-14.3 z"
   id="path950" />
	<path
   stroke="#000000"
   stroke-width="0.09375"
   d="m 1421.3,1082.3 c 9.6,-3.1 20.9,2.5 24.4,11.9 3,7.4 1.2,16.4 -4.6,21.9 -5.5,5.6 -14.5,7.4 -21.7,4.4 -7.4,-2.9 -12.7,-10.5 -12.7,-18.5 -0.2,-8.8 6.1,-17.4 14.6,-19.7 z"
   id="path952" />
	<path
   stroke="#000000"
   stroke-width="0.09375"
   d="m 638.4,1083.5 c 9.8,-3 21.1,3 24.4,12.7 2.6,7.1 0.7,15.7 -4.7,21 -5.8,6 -15.6,7.8 -23.1,4 -7.5,-3.5 -12.2,-11.9 -11.3,-20.1 0.7,-8.3 6.8,-15.6 14.7,-17.6 z"
   id="path954" />
	<path
   fill="#010101"
   stroke="#010101"
   stroke-width="0.09375"
   d="m 458.3,1085.2 c 6.7,-2.7 15,1.9 16.2,9 1.9,7.5 -4.9,15.4 -12.5,14.7 -7.6,0.1 -13.5,-8.2 -11.3,-15.4 0.9,-3.7 3.9,-6.9 7.6,-8.3 z"
   id="path956" />
	<path
   stroke="#000000"
   stroke-width="0.09375"
   d="m 1588.4,1085.7 c 8.5,-2.5 18.1,3.7 19.4,12.4 1.7,8.1 -4.2,16.8 -12.3,18.3 -7.9,1.8 -16.6,-3.6 -18.4,-11.6 -2.3,-8.1 3.2,-17.2 11.3,-19.1 z"
   id="path958" />
	<path
   stroke="#000000"
   stroke-width="0.09375"
   d="m 1476.4,1087.5 c 12.7,-3.3 27,4.2 31.5,16.5 3.1,7.9 2.3,17.3 -2.4,24.5 -4.4,7 -12.2,11.7 -20.5,12.4 -10.5,1.1 -21.2,-4.6 -26.2,-13.9 -5,-8.8 -4.4,-20.4 1.5,-28.7 3.8,-5.3 9.6,-9.3 16.1,-10.8 z"
   id="path960" />
	<path
   fill="#010101"
   stroke="#010101"
   stroke-width="0.09375"
   d="m 562.3,1097.3 c 7.4,-1.5 14.9,5.2 14.2,12.8 -0.2,7.5 -8.3,13.4 -15.5,11.2 -7.1,-1.7 -11.2,-10.3 -8,-16.9 1.8,-3.8 5.3,-6.5 9.3,-7.1 z"
   id="path962" />
	<path
   stroke="#000000"
   stroke-width="0.09375"
   d="m 1045.4,1107.8 c 20.3,-3.1 41.5,1.2 59,11.8 13.7,8.2 25.2,20.2 32.7,34.4 8.8,16.3 12.2,35.5 9.8,53.8 -2.5,18.7 -11.1,36.5 -24.2,50 -12.2,12.8 -28.4,21.8 -45.7,25.4 -16.9,3.7 -35,2.2 -51.1,-4.1 -18,-7 -33.6,-20 -43.6,-36.4 -9.2,-14.8 -13.7,-32.3 -13.1,-49.7 0.6,-19.7 8,-39 20.6,-54 13.9,-16.9 34.1,-28.2 55.6,-31.2 z"
   id="path964" />
	<path
   stroke="#000000"
   stroke-width="0.09375"
   d="m 1385.3,1110.3 c 9.7,-1.7 19.5,6.9 19.1,16.8 0.2,9.2 -8.3,17.2 -17.4,16.6 -9.4,-0.1 -17.5,-9.3 -16.1,-18.6 0.8,-7.5 7,-14 14.4,-14.8 z"
   id="path966" />
	<path
   fill="#010101"
   stroke="#010101"
   stroke-width="0.09375"
   d="m 794.5,1111.5 c 5.7,-2.5 12.5,3.1 11,9.1 -0.9,6.2 -9.3,9 -13.7,4.5 -4.4,-3.7 -2.9,-11.7 2.7,-13.6 z"
   id="path968" />
	<path
   stroke="#000000"
   stroke-width="0.09375"
   d="m 1542.4,1112.5 c 17.5,-4.3 36.9,6.4 42.7,23.4 6,15.6 -0.4,34.7 -14.5,43.6 -11,7.3 -26,8 -37.6,1.6 -12.9,-6.7 -20.9,-21.6 -19.3,-36.1 1.2,-15.5 13.4,-29.3 28.7,-32.5 z"
   id="path970" />
	<path
   stroke="#000000"
   stroke-width="0.09375"
   d="m 828.4,1113.6 c 12.3,-3.7 26.2,4.9 28.6,17.5 3,12.4 -6.3,26.1 -19,27.6 -12.3,2.3 -25.2,-7.3 -26.5,-19.8 -1.8,-11.1 6,-22.6 16.9,-25.3 z"
   id="path972" />
	<path
   fill="#010101"
   stroke="#010101"
   stroke-width="0.09375"
   d="m 875.5,1122.5 c 5.2,-3.2 12.6,1.4 12.2,7.4 0.1,6 -7.3,10.1 -12.4,6.8 -5.4,-2.8 -5.3,-11.5 0.2,-14.2 z"
   id="path974" />
	<path
   stroke="#000000"
   stroke-width="0.09375"
   d="m 1423.3,1137.4 c 17.8,-3.8 37.1,7.9 42.1,25.3 5.6,16.7 -2.9,36.4 -18.7,43.9 -15,7.9 -35.1,3.5 -45.4,-10 -9.8,-11.8 -10.8,-29.9 -2.4,-42.8 5.4,-8.4 14.4,-14.6 24.4,-16.4 z"
   id="path976" />
	<path
   fill="#010101"
   stroke="#010101"
   stroke-width="0.09375"
   d="m 1349.4,1138.5 c 6.1,-2.7 14,0.6 16.3,6.9 3,6.8 -1.6,15.4 -8.9,16.8 -7.1,1.8 -14.8,-3.9 -15.1,-11.2 -0.5,-5.3 2.9,-10.6 7.7,-12.5 z"
   id="path978" />
	<path
   fill="#010101"
   stroke="#010101"
   stroke-width="0.09375"
   d="m 719.3,1139.3 c 7.3,-2.4 15.8,3.1 16.5,10.8 1.3,7.8 -5.9,15.5 -13.7,14.7 -7.3,-0.3 -13.2,-7.5 -12,-14.7 0.6,-5 4.4,-9.4 9.2,-10.8 z"
   id="path980" />
	<path
   stroke="#000000"
   stroke-width="0.09375"
   d="m 1484.4,1151.4 c 8,-2.9 17.7,1.8 20.3,9.8 3.2,8 -1.5,17.9 -9.7,20.7 -8.2,3.2 -18.4,-1.8 -20.8,-10.3 -2.9,-8 2.1,-17.6 10.2,-20.2 z"
   id="path982" />
	<path
   stroke="#000000"
   stroke-width="0.09375"
   d="m 1236.4,1156.5 c 7.2,-1.7 15.1,-0.3 21.2,4 6.5,4.3 10.7,11.8 11.4,19.5 1,10.2 -4.6,20.6 -13.5,25.5 -9.5,5.4 -22.3,4 -30.4,-3.4 -7.3,-6.3 -10.6,-16.9 -8.1,-26.2 2.1,-9.5 9.9,-17.3 19.4,-19.4 z"
   id="path984" />
	<path
   stroke="#000000"
   stroke-width="0.09375"
   d="m 889.3,1159.3 c 7.9,-2.6 16.8,4.3 16.5,12.5 0.2,7.2 -6.6,13.6 -13.8,12.9 -7.3,-0.2 -13.3,-7.4 -12.1,-14.6 0.7,-5 4.6,-9.4 9.4,-10.8 z"
   id="path986" />
	<path
   fill="#010101"
   stroke="#010101"
   stroke-width="0.09375"
   d="m 1303.4,1159.4 c 7.2,-2.8 15.5,3.9 14.5,11.5 -0.4,8.2 -11.1,13.1 -17.5,7.9 -7.3,-4.8 -5.3,-17.1 3,-19.4 z"
   id="path988" />
	<path
   fill="#020202"
   stroke="#020202"
   stroke-width="0.09375"
   d="m 854.4,1162.4 c 5.8,-2.8 12.9,3.1 11.2,9.3 -1,5.7 -8.6,8.5 -13.1,4.7 -4.9,-3.5 -3.7,-11.9 1.9,-14 z"
   id="path990" />
	<path
   stroke="#000000"
   stroke-width="0.09375"
   d="m 1178.4,1169.6 c 6.9,-1.5 14.4,0.6 19.5,5.6 6.1,5.7 8.4,15.2 5.4,23.1 -3,8.7 -12.1,14.7 -21.3,14.2 -10.8,-0.2 -20.5,-9.6 -20.8,-20.5 -0.8,-10.4 7,-20.5 17.2,-22.4 z"
   id="path992" />
	<path
   stroke="#000000"
   stroke-width="0.09375"
   d="m 1367.4,1173.6 c 9.9,-2.2 20.2,6.3 19.9,16.4 0.4,9.6 -8.8,17.9 -18.3,16.8 -9.5,-0.6 -17,-10.3 -15,-19.7 1.1,-6.7 6.7,-12.3 13.4,-13.5 z"
   id="path994" />
	<path
   fill="#010101"
   stroke="#010101"
   stroke-width="0.09375"
   d="m 929.3,1182.3 c 7.7,-2.8 16.8,3.5 16.9,11.7 0.6,7.3 -5.9,14.1 -13.2,13.7 -6.8,0 -12.8,-6 -12.7,-12.7 -0.2,-5.7 3.7,-11 9,-12.7 z"
   id="path996" />
	<path
   fill="#010101"
   stroke="#010101"
   stroke-width="0.09375"
   d="m 1509.5,1183.5 c 5.2,-2.8 12.4,-0.1 14.5,5.4 2.4,5.3 -0.5,12.1 -6,14.1 -5.1,2.1 -11.4,-0.5 -13.6,-5.5 -2.4,-5.1 0,-11.7 5.1,-14 z"
   id="path998" />
	<path
   stroke="#000000"
   stroke-width="0.09375"
   d="m 1302.5,1191.7 c 18.7,-3.6 38.8,6.7 47,23.8 8.2,15.8 5.3,36.3 -6.7,49.3 -12.2,13.9 -33.6,18.5 -50.4,10.9 -17.2,-7.2 -28.4,-26.1 -26.3,-44.7 1.6,-19.3 17.3,-36.3 36.4,-39.3 z"
   id="path1000" />
	<path
   stroke="#000000"
   stroke-width="0.09375"
   d="m 1541.4,1195.5 c 8.5,-3 18.8,2.7 20.7,11.6 2.7,9.5 -5.3,20 -15.1,19.9 -8.5,0.6 -16.3,-6.6 -16.7,-15 -0.6,-7.2 4.2,-14.3 11.1,-16.5 z"
   id="path1002" />
	<path
   fill="#010101"
   stroke="#010101"
   stroke-width="0.09375"
   d="m 895.4,1198.3 c 5.2,-2.9 12.3,1.7 11.8,7.6 0.1,6.5 -8.6,10.5 -13.4,6.1 -4.5,-3.4 -3.6,-11.3 1.6,-13.7 z"
   id="path1004" />
	<path
   stroke="#000000"
   stroke-width="0.09375"
   d="m 1473.3,1205.2 c 16.2,-2.9 33.5,2.8 44.9,14.6 13.4,13.4 18.2,34.6 11.8,52.4 -5.8,17.1 -21.3,30.5 -39.2,33.5 -17.9,3.4 -37.2,-3.8 -48.6,-17.9 -11.6,-14 -14.8,-34.4 -7.8,-51.2 6.4,-16.4 21.7,-28.7 38.9,-31.4 z"
   id="path1006" />
	<path
   stroke="#000000"
   stroke-width="0.09375"
   d="m 1388.4,1214.5 c 9.9,-1.6 20.4,2.6 26.7,10.4 8.3,10.1 8.3,25.9 -0.2,35.9 -8.3,10.5 -24.2,13.6 -35.8,7 -10.7,-5.6 -16.9,-18.5 -14.4,-30.4 2,-11.6 12,-21.2 23.7,-22.9 z"
   id="path1008" />
	<path
   fill="#010101"
   stroke="#010101"
   stroke-width="0.09375"
   d="m 949.5,1215.5 c 5.8,-2 12.2,4.2 10.2,10.1 -1.4,5.9 -9.7,8.1 -13.8,3.5 -4.4,-4 -2.2,-12.2 3.6,-13.6 z"
   id="path1010" />
	<path
   stroke="#000000"
   stroke-width="0.09375"
   d="m 1193.4,1225.5 c 16.9,-3.4 35,0.9 48.7,11.4 12.9,9.7 21.6,24.8 23.6,40.9 2.6,18.6 -4.3,38.1 -17.6,51.2 -12,12 -29.1,18.5 -46,17.6 -18,-0.8 -35.3,-10 -46,-24.5 -11.5,-15.1 -15.2,-35.7 -9.7,-53.8 6,-21.6 24.9,-38.9 47,-42.8 z"
   id="path1012" />
	<path
   stroke="#000000"
   stroke-width="0.09375"
   d="m 795.3,1235.1 c 11.3,-3.5 24.3,5.2 25.4,17 1.6,10.5 -6.5,21.1 -17,22.4 -10.2,1.8 -20.8,-5.5 -22.8,-15.6 -2.5,-10.1 4.4,-21.3 14.4,-23.8 z"
   id="path1014" />
	<path
   stroke="#000000"
   stroke-width="0.09375"
   d="m 477.4,1242.6 c 9.5,-2.1 19.8,4.9 21.4,14.5 2.4,10.4 -6.2,21.3 -16.8,21.7 -9.2,0.8 -18.2,-6.5 -19.2,-15.7 -1.6,-9.4 5.3,-19 14.6,-20.5 z"
   id="path1016" />
	<path
   stroke="#000000"
   stroke-width="0.09375"
   d="m 622.3,1249.4 c 8.6,-2.5 18.4,2.3 21.6,10.6 2.8,6.4 1.3,14.4 -3.5,19.4 -4.7,5.1 -12.4,7.1 -18.9,4.9 -7.1,-2.1 -12.4,-9 -12.7,-16.5 -0.5,-8.2 5.4,-16.4 13.5,-18.4 z"
   id="path1018" />
	<path
   stroke="#000000"
   stroke-width="0.09375"
   d="m 943.4,1254.6 c 19.3,-3 39.2,11 43.1,30.1 4.5,18 -5.9,38.1 -23.1,44.9 -14.9,6.4 -33.4,2.3 -44.1,-9.9 -11.7,-12.5 -13.4,-32.9 -4,-47.2 6.2,-9.8 16.7,-16.5 28.1,-17.9 z"
   id="path1020" />
	<path
   stroke="#000000"
   stroke-width="0.09375"
   d="m 1407.4,1279.6 c 11,-3.7 23.8,4 25.7,15.4 2.4,10.7 -5.4,22.1 -16.2,23.8 -10.8,2.3 -22.4,-5.9 -23.7,-16.9 -1.6,-9.6 4.8,-19.7 14.2,-22.3 z"
   id="path1022" />
	<path
   fill="#010101"
   stroke="#010101"
   stroke-width="0.09375"
   d="m 1046.4,1297.5 c 6,-1.3 12.5,3.4 13,9.5 1,6.5 -4.9,12.8 -11.5,12.3 -6.2,-0.1 -11.3,-6.2 -10.4,-12.3 0.5,-4.7 4.3,-8.7 8.9,-9.5 z"
   id="path1024" />
	<path
   stroke="#000000"
   stroke-width="0.09375"
   d="m 1102.4,1298.5 c 16.9,-2.9 34.5,9.1 38.1,25.9 4.3,16.4 -5.9,34.8 -22.1,39.9 -14.7,5.4 -32.4,-1.1 -40.2,-14.5 -8.4,-13.3 -5.7,-32.2 6,-42.6 5,-4.6 11.4,-7.7 18.2,-8.7 z"
   id="path1026" />
	<path
   stroke="#000000"
   stroke-width="0.09375"
   d="m 1316.4,1299.8 c 17,-2.8 34.8,-0.7 50.5,6.3 16.7,7.3 31.1,19.9 40.5,35.5 10.6,17.3 14.9,38.3 12.1,58.4 -2.7,19.4 -12,37.9 -26,51.6 -11.7,11.5 -26.6,19.6 -42.7,23.2 -18.6,4.3 -38.6,2.4 -56,-5.5 -14.5,-6.4 -27.2,-16.8 -36.4,-29.7 -12.1,-16.8 -18,-38 -16.3,-58.6 1.2,-17.2 7.7,-33.9 18.2,-47.5 13.6,-17.9 34.1,-30.2 56.1,-33.7 z"
   id="path1028" />
	<path
   stroke="#000000"
   stroke-width="0.09375"
   d="m 877.4,1303.6 c 8.8,-3 19.1,3.3 20.6,12.5 2,8.9 -5,18.3 -14,19.2 -8.6,1.3 -17.4,-5.6 -18,-14.3 -1.1,-7.6 4.1,-15.4 11.4,-17.4 z"
   id="path1030" />
	<path
   stroke="#000000"
   stroke-width="0.09375"
   d="m 1463.3,1315.3 c 9.6,-2.2 20.1,3.8 23.1,13.1 2.6,7.2 0.7,15.8 -4.9,21.1 -5.9,5.9 -15.5,7.5 -22.9,3.8 -7.6,-3.5 -12.4,-12 -11.4,-20.4 0.8,-8.5 7.7,-16 16.1,-17.6 z"
   id="path1032" />
	<path
   stroke="#000000"
   stroke-width="0.09375"
   d="m 1003.3,1328.2 c 17.3,-2.8 35.5,2.3 48.9,13.6 12,10 19.9,24.7 21.5,40.2 2.2,18.2 -4.7,37.1 -17.7,50 -11.5,11.5 -27.8,18.1 -44,17.8 -16.8,-0.2 -33.3,-7.7 -44.5,-20.2 -14.3,-15.6 -19.5,-39 -13,-59.2 6.5,-21.8 26.3,-38.9 48.8,-42.2 z"
   id="path1034" />
	<path
   stroke="#000000"
   stroke-width="0.09375"
   d="m 827.4,1333.5 c 14.6,-3.9 31.2,3.5 38.1,16.9 5,9.2 5.4,20.7 1,30.2 -4.7,10.5 -15.1,18.2 -26.5,19.6 -15.8,2.4 -32.3,-8 -36.8,-23.3 -4.5,-13.2 0.4,-28.8 11.5,-37.3 3.7,-2.8 8.1,-5 12.7,-6.1 z"
   id="path1036" />
	<path
   stroke="#000000"
   stroke-width="0.09375"
   d="m 906.3,1342.3 c 12.5,-3 26.3,4 31.6,15.7 5.2,10.7 2.5,24.6 -6.3,32.6 -8.7,8.4 -22.9,10.1 -33.3,4 -9,-5 -14.8,-15.3 -14.3,-25.7 0.2,-12.5 10,-24.1 22.3,-26.6 z"
   id="path1038" />
	<path
   stroke="#000000"
   stroke-width="0.09375"
   d="m 1176.4,1361.5 c 18.2,-4.2 38.3,4.1 48.3,19.9 10.1,15 9.9,36 -0.4,50.9 -9.9,15.1 -29.3,23.1 -47,19.4 -17.2,-3.2 -31.7,-16.9 -35.8,-33.9 -3.9,-15.1 0.5,-31.9 11.3,-43.1 6.2,-6.6 14.6,-11.3 23.6,-13.2 z"
   id="path1040" />
	<path
   fill="#010101"
   stroke="#010101"
   stroke-width="0.09375"
   d="m 1443.4,1367.4 c 7.2,-2.9 15.6,4 14.1,11.7 -0.8,7.8 -11.3,11.9 -17.2,6.7 -6.5,-4.8 -4.6,-16.1 3.1,-18.4 z"
   id="path1042" />
	<path
   stroke="#000000"
   stroke-width="0.09375"
   d="m 695.4,1373.5 c 15.9,-3.3 32.9,8.5 35.4,24.5 3.3,15.3 -7.3,31.7 -22.5,35.2 -14.7,4.2 -31.5,-4.8 -36.4,-19.3 -5,-13.2 0.7,-29.2 12.8,-36.4 3.2,-1.9 6.9,-3.3 10.7,-4 z"
   id="path1044" />
	<path
   stroke="#000000"
   stroke-width="0.09375"
   d="m 1100.4,1375.8 c 6.1,-1.6 12.9,0 17.9,3.9 6.8,5.3 9.5,15.1 6.5,23.2 -3.2,9.1 -13.3,15.1 -22.8,13.3 -9.3,-1.4 -17,-9.8 -17.3,-19.2 -0.8,-9.7 6.3,-19.1 15.7,-21.2 z"
   id="path1046" />
	<path
   fill="#010101"
   stroke="#010101"
   stroke-width="0.09375"
   d="m 750.3,1382.2 c 5.9,-2.5 13.4,1.5 14.5,7.9 1.6,6.2 -3.5,12.9 -9.9,13.1 -5.4,0.5 -10.8,-3.8 -11.4,-9.2 -0.8,-4.9 2.2,-10.1 6.8,-11.8 z"
   id="path1048" />
	<path
   stroke="#000000"
   stroke-width="0.09375"
   d="m 782.3,1407.4 c 14.9,-3.8 31.5,6.2 35,21.2 4.1,14 -4.2,30 -17.8,34.9 -12.4,5.1 -27.8,0.2 -35.1,-11 -7.7,-11 -6.3,-27.2 3.2,-36.8 4,-4.1 9.2,-7.1 14.7,-8.3 z"
   id="path1050" />
	<path
   stroke="#000000"
   stroke-width="0.09375"
   d="m 864.4,1408.5 c 12.3,-4.1 26.6,4.1 29.4,16.7 3.2,11.5 -4.1,24.5 -15.5,28 -9.1,3.1 -19.9,-0.2 -25.7,-7.9 -5.4,-6.8 -6.5,-16.6 -2.7,-24.4 2.8,-6 8.2,-10.5 14.5,-12.4 z"
   id="path1052" />
	<path
   stroke="#000000"
   stroke-width="0.09375"
   d="m 374.4,1411.7 c 14.4,-3.6 30.1,7.4 31.4,22.2 2.2,14.2 -9.5,28.3 -23.8,29 -13.4,1.4 -26.6,-9.4 -27.8,-22.8 -1.7,-12.9 7.6,-25.9 20.2,-28.4 z"
   id="path1054" />
	<path
   fill="#010101"
   stroke="#010101"
   stroke-width="0.09375"
   d="m 533.3,1412.3 c 6.4,-2.2 13.7,3 13.9,9.7 0.6,6.2 -5.1,12 -11.3,11.6 -5.2,-0.1 -9.9,-4.4 -10.4,-9.6 -0.6,-5.1 2.9,-10.3 7.8,-11.7 z"
   id="path1056" />
	<path
   stroke="#000000"
   stroke-width="0.09375"
   d="m 464.4,1415.7 c 18.4,-3.8 38.5,6.2 46.8,23.1 8.6,16.4 5.1,38.2 -8.5,50.9 -13.1,13.3 -35.1,16.1 -51.3,7 -16,-8.5 -25.3,-27.7 -22,-45.6 2.8,-17.6 17.4,-32.5 35,-35.4 z"
   id="path1058" />
	<path
   stroke="#000000"
   stroke-width="0.09375"
   d="m 927.5,1416.7 c 6.8,-1.2 14.1,1 19,5.9 6.3,6 8.5,16 5.1,24.1 -3.6,9.1 -13.8,15.1 -23.5,13.5 -10.3,-1.3 -18.7,-10.7 -18.8,-21 -0.7,-10.8 7.6,-21 18.2,-22.5 z"
   id="path1060" />
	<path
   stroke="#000000"
   stroke-width="0.09375"
   d="m 128.4,1421.4 c 6.4,-2 13.7,0.1 18.3,4.9 5.3,5.3 6.6,14 3.3,20.6 -3.4,7.3 -12,11.6 -19.9,10 -8.4,-1.5 -15,-9.4 -14.8,-17.9 -0.2,-7.9 5.5,-15.4 13.1,-17.6 z"
   id="path1062" />
	<path
   stroke="#000000"
   stroke-width="0.09375"
   d="m 574.4,1421.6 c 6.4,-1.9 13.6,-0.9 19.2,2.8 6,3.8 10.1,10.5 10.7,17.6 0.8,7.8 -2.7,15.7 -8.8,20.5 -6.4,5.1 -15.6,6.5 -23.2,3.3 -8.7,-3.4 -14.8,-12.4 -14.7,-21.8 -0.2,-10.1 7.1,-19.7 16.8,-22.4 z"
   id="path1064" />
	<path
   stroke="#000000"
   stroke-width="0.09375"
   d="m 641.4,1423.5 c 7.7,-2.6 16.5,3.4 17.1,11.4 1,7.6 -5.7,15.1 -13.4,14.8 -7.9,0.2 -14.7,-7.8 -13.1,-15.6 0.8,-4.9 4.6,-9.2 9.4,-10.6 z"
   id="path1066" />
	<path
   fill="#010101"
   stroke="#010101"
   stroke-width="0.09375"
   d="m 736.5,1426.6 c 5.5,-2.2 12.5,1 14.2,6.8 2.1,5.7 -1.8,12.6 -7.7,13.9 -5.4,1.5 -11.6,-2 -13,-7.4 -1.9,-5.3 1.3,-11.5 6.5,-13.3 z"
   id="path1068" />
	<path
   stroke="#000000"
   stroke-width="0.09375"
   d="m 1108.4,1428.5 c 10.7,-3.9 23.5,2.9 26.4,13.8 3.4,10.5 -3.4,22.8 -14,25.7 -6.7,2 -14.3,0.4 -19.5,-4.3 -5.5,-4.7 -8.1,-12.4 -6.7,-19.5 1.3,-7.1 6.8,-13.4 13.8,-15.7 z"
   id="path1070" />
	<path
   fill="#010101"
   stroke="#010101"
   stroke-width="0.09375"
   d="m 262.4,1432.4 c 7,-3.2 15.9,1.4 17.5,8.8 1.9,6.6 -2.5,14.1 -9.1,15.7 -6.6,2 -14.2,-2.3 -16,-9 -1.8,-6.1 1.6,-13.2 7.6,-15.5 z"
   id="path1072" />
	<path
   fill="#010101"
   stroke="#010101"
   stroke-width="0.09375"
   d="m 675.3,1441.2 c 6,-2.6 13.6,1.4 14.7,7.8 1.5,5.9 -3.1,12.3 -9.2,13 -6,1 -12.1,-4 -12.3,-10.1 -0.3,-4.5 2.7,-9 6.8,-10.7 z"
   id="path1074" />
	<path
   fill="#010101"
   stroke="#010101"
   stroke-width="0.09375"
   d="m 321.3,1452.2 c 5.5,-2.7 12.4,2.8 11.2,8.8 -0.6,5.8 -8.2,8.9 -12.8,5.4 -5.2,-3.3 -4.2,-12.2 1.6,-14.2 z"
   id="path1076" />
	<path
   fill="#010101"
   stroke="#010101"
   stroke-width="0.09375"
   d="m 531.4,1453.3 c 5.6,-2.4 12.8,1 14.4,6.9 2.1,6.1 -2.4,13.2 -8.9,14 -6.1,1.1 -12.2,-4 -12.4,-10.2 -0.3,-4.6 2.7,-9 6.9,-10.7 z"
   id="path1078" />
	<path
   stroke="#000000"
   stroke-width="0.09375"
   d="m 709.4,1453.6 c 12.7,-3.8 27.2,5.4 29.1,18.5 2.6,12.5 -6.9,25.7 -19.5,27.3 -12.6,2.3 -25.6,-7.6 -26.8,-20.3 -1.6,-11.3 6.3,-22.8 17.2,-25.5 z"
   id="path1080" />
	<path
   stroke="#000000"
   stroke-width="0.09375"
   d="m 1050.4,1454.6 c 16.7,-4.9 35.8,5.7 40.7,22.3 5.7,16.5 -3.9,36.2 -20.3,41.8 -15.1,6 -33.7,-1 -41.2,-15.3 -7.5,-13.2 -4.6,-31.1 6.8,-41.2 3.9,-3.6 8.8,-6.3 14,-7.6 z"
   id="path1082" />
	<path
   stroke="#000000"
   stroke-width="0.09375"
   d="m 1228.5,1455.8 c 15.6,-3.5 32.8,4.3 40.3,18.4 6.8,12 6.2,27.7 -1.6,39 -9.2,14.3 -28.8,20.5 -44.5,14.1 -14.6,-5.4 -24.8,-20.7 -24,-36.3 0.4,-16.7 13.3,-32.1 29.8,-35.2 z"
   id="path1084" />
	<path
   stroke="#000000"
   stroke-width="0.09375"
   d="m 975.4,1457.6 c 9.6,-2.2 20.1,1.1 26.7,8.3 8.2,8.5 10,22.2 4.4,32.5 -5.6,11.1 -19.1,17.3 -31.1,14.4 -12.7,-2.6 -22.5,-14.8 -22.2,-27.8 -0.2,-12.9 9.6,-24.9 22.2,-27.4 z"
   id="path1086" />
	<path
   stroke="#000000"
   stroke-width="0.09375"
   d="m 625.4,1461.6 c 8.1,-1.5 16.8,-0.1 23.9,4.1 10.6,6 17.5,18.1 17.2,30.3 0.2,16.3 -12.8,31.3 -28.8,33.7 -16.2,3.1 -33.5,-7.3 -38.5,-22.9 -5.3,-14.4 0.8,-31.7 13.6,-40 3.8,-2.5 8.1,-4.3 12.6,-5.2 z"
   id="path1088" />
	<path
   stroke="#000000"
   stroke-width="0.09375"
   d="m 896.4,1461.6 c 9.2,-2.2 19.4,3.6 22.3,12.6 2.5,7 0.4,15.3 -5.1,20.3 -5.6,5.3 -14.4,6.7 -21.3,3.3 -6.7,-3.1 -11.3,-10.4 -11,-17.8 -0.1,-8.7 6.6,-16.7 15.1,-18.4 z"
   id="path1090" />
	<path
   fill="#010101"
   stroke="#010101"
   stroke-width="0.09375"
   d="m 831.3,1465.3 c 7.7,-2.5 16.5,3.6 17,11.7 0.9,7.5 -5.7,14.8 -13.3,14.6 -6.9,0.2 -13.2,-5.7 -13.4,-12.6 -0.6,-6.1 3.8,-12.1 9.7,-13.7 z"
   id="path1092" />
	<path
   stroke="#000000"
   stroke-width="0.09375"
   d="m 1147.3,1468.2 c 8.8,-1.6 18.2,1.7 24,8.4 5.8,6.5 8,16 5.6,24.4 -2.5,9 -10.3,16.4 -19.5,18.3 -9.2,2.1 -19.2,-1.3 -25.3,-8.4 -5.1,-5.9 -7.4,-14.2 -5.9,-21.8 1.9,-10.4 10.7,-19.2 21.1,-20.9 z"
   id="path1094" />
	<path
   fill="#010101"
   stroke="#010101"
   stroke-width="0.09375"
   d="m 414.4,1474.4 c 6.3,-1.9 12.7,5.1 10.3,11.2 -1.7,6.1 -10.5,8 -14.6,3.2 -4.6,-4.4 -2,-13.2 4.3,-14.4 z"
   id="path1096" />
	<path
   fill="#010101"
   stroke="#010101"
   stroke-width="0.09375"
   d="m 255.4,1476.5 c 5.6,-2.1 12,3.5 10.5,9.3 -0.9,6 -9,8.7 -13.4,4.5 -4.6,-3.7 -2.9,-12.2 2.9,-13.8 z"
   id="path1098" />
	<path
   fill="#020202"
   stroke="#020202"
   stroke-width="0.09375"
   d="m 291.4,1478.4 c 5.5,-2.7 12.4,2.5 11.4,8.5 -0.5,6 -8.4,9.3 -13,5.5 -5,-3.5 -4.1,-12 1.6,-14 z"
   id="path1100" />
	<path
   fill="#010101"
   stroke="#010101"
   stroke-width="0.09375"
   d="m 561.5,1479.8 c 7.7,-2.7 16.7,3.3 17.3,11.4 1.1,8.1 -6.6,15.7 -14.7,14.7 -7.5,-0.6 -13.3,-8.3 -11.8,-15.6 0.8,-4.9 4.5,-9.1 9.2,-10.5 z"
   id="path1102" />
	<path
   fill="#010101"
   stroke="#010101"
   stroke-width="0.09375"
   d="m 1297.4,1488.5 c 7.9,-2.2 15.7,6.3 13,14 -2.1,8 -13.8,10.4 -18.9,3.9 -5.5,-5.8 -1.9,-16.5 5.9,-17.9 z"
   id="path1104" />
	<path
   fill="#010101"
   stroke="#010101"
   stroke-width="0.09375"
   d="m 332.5,1489.6 c 7.2,-3 16.1,1.9 17.4,9.6 2,8.1 -5.5,16.4 -13.7,15.5 -7.2,-0.3 -13,-7.5 -11.9,-14.5 0.4,-4.8 3.8,-8.9 8.2,-10.6 z"
   id="path1106" />
	<path
   stroke="#000000"
   stroke-width="0.09375"
   d="m 525.4,1502.6 c 11,-1.9 22.7,5.3 25.9,16 2.7,8.2 0.3,17.8 -5.9,23.8 -6.9,7 -18.4,8.8 -27.1,4.2 -8.6,-4.3 -13.9,-14.1 -12.6,-23.6 1.1,-10.2 9.5,-19 19.7,-20.4 z"
   id="path1108" />
	<path
   stroke="#000000"
   stroke-width="0.09375"
   d="m 408.3,1503.2 c 12,-2.5 25,4.9 29,16.4 3.4,8.9 1.4,19.6 -5.1,26.6 -6.4,7.1 -16.9,10.2 -26.1,7.6 -11.3,-2.9 -19.7,-14.1 -19,-25.8 0.1,-11.9 9.5,-22.8 21.2,-24.8 z"
   id="path1110" />
	<path
   fill="#010101"
   stroke="#010101"
   stroke-width="0.09375"
   d="m 256.4,1506.5 c 7.9,-2.6 16.8,4.1 16.6,12.5 0.3,8 -8,14.7 -15.8,12.7 -7.7,-1.4 -12.5,-10.6 -9.2,-17.7 1.5,-3.6 4.7,-6.5 8.4,-7.5 z"
   id="path1112" />
	<path
   fill="#010101"
   stroke="#010101"
   stroke-width="0.09375"
   d="m 474.5,1513.6 c 6.3,-1.5 13.2,3.8 13,10.4 0.4,6.8 -6.6,12.5 -13.2,10.8 -6.3,-1.2 -10.2,-8.5 -7.8,-14.4 1.3,-3.4 4.4,-6.1 8,-6.8 z"
   id="path1114" />
	<path
   stroke="#000000"
   stroke-width="0.09375"
   d="m 356.5,1516.6 c 7.2,-2.9 15.9,2.8 16.3,10.5 0.8,6.8 -5,13.3 -11.8,13.3 -6.5,0.4 -12.6,-5.1 -12.7,-11.6 -0.4,-5.2 3.1,-10.5 8.2,-12.2 z"
   id="path1116" />
	<path
   fill="#010101"
   stroke="#010101"
   stroke-width="0.09375"
   d="m 308.4,1524.3 c 5.8,-2.6 12.7,3.5 10.9,9.6 -1.2,6 -9.7,8.2 -13.8,3.7 -4.1,-3.9 -2.4,-11.5 2.9,-13.3 z"
   id="path1118" />
	<path
   stroke="#000000"
   stroke-width="0.09375"
   d="m 133.4,1533.6 c 11.3,-2.6 22.9,7.8 21.6,19.3 -0.5,10.5 -11.3,18.8 -21.6,16.5 -10.6,-1.7 -17.8,-13.9 -13.8,-24 2,-6 7.5,-10.7 13.8,-11.8 z"
   id="path1120" />
	<path
   fill="#010101"
   stroke="#010101"
   stroke-width="0.09375"
   d="m 452.4,1541.3 c 6,-1.7 12.2,4.5 10.4,10.4 -1.2,6.5 -10.4,9 -14.7,4.1 -4.7,-4.4 -2.1,-13.3 4.3,-14.5 z"
   id="path1122" />
	<path
   stroke="#000000"
   stroke-width="0.09375"
   d="m 327.4,1544.4 c 13.3,-4 28.6,4.7 31.9,18.2 4,13.2 -4.6,28.3 -17.8,31.8 -13.2,4.2 -28.7,-4.3 -32.2,-17.8 -4.2,-13.3 4.5,-28.8 18.1,-32.2 z"
   id="path1124" />
	<path
   fill="#020202"
   stroke="#020202"
   stroke-width="0.09375"
   d="m 388.5,1559.6 c 6.3,-1.8 12.6,5 10.3,11.2 -1.7,6.2 -10.5,8.1 -14.7,3.2 -4.6,-4.6 -1.9,-13.3 4.4,-14.4 z"
   id="path1126" />
	<path
   stroke="#000000"
   stroke-width="0.09375"
   d="m 220.4,1596.3 c 6.9,-2.6 15.1,2.4 16.1,9.7 1.2,6.6 -3.9,13.4 -10.5,14.1 -6.7,1.1 -13.6,-4.4 -13.8,-11.2 -0.7,-5.4 2.9,-10.9 8.2,-12.6 z"
   id="path1128" />
	<path
   stroke="#000000"
   stroke-width="0.09375"
   d="m 88.3,1645.2 c 10.7,-2.5 22,6.8 21.7,17.8 0.4,10.1 -8.9,19.1 -19,18.4 -9.1,-0.2 -17.2,-8.2 -17.5,-17.4 -0.6,-8.8 6.1,-17.3 14.8,-18.8 z"
   id="path1130" />
	<path
   stroke="#000000"
   stroke-width="0.09375"
   d="m 271.4,1679.6 c 12.3,-3.7 26.2,5 28.5,17.5 2.8,11.5 -5,24.2 -16.5,27 -8.3,2.3 -17.8,-0.5 -23.4,-7.1 -5.6,-6.2 -7.3,-15.5 -4.3,-23.3 2.6,-6.9 8.6,-12.3 15.7,-14.1 z"
   id="path1132" />
	<path
   stroke="#000000"
   stroke-width="0.09375"
   d="m 139.4,1703.6 c 8.2,-2.3 17.4,0.6 23,7 5.4,6 7.3,14.9 4.7,22.6 -2.9,8.9 -11.7,15.7 -21.2,15.7 -8.8,0.5 -17.4,-4.7 -21.3,-12.6 -3.4,-6.6 -3.3,-14.9 0.3,-21.4 3,-5.5 8.4,-9.8 14.5,-11.3 z"
   id="path1134" />
</g>
</svg>
